<svg width="24" height="24" viewBox="0 0 24 24" fill="none" xmlns="http://www.w3.org/2000/svg">
<g id="Spinner" clip-path="url(#clip0_158_50658)">
<path id="Spinner_2" fill-rule="evenodd" clip-rule="evenodd" d="M14.0484 1.70176C12.0116 1.29662 9.90045 1.50455 7.98183 2.29927C6.0632 3.09399 4.42333 4.4398 3.26957 6.16652C2.11581 7.89323 1.5 9.9233 1.5 12C1.5 12.4142 1.16421 12.75 0.75 12.75C0.335786 12.75 0 12.4142 0 12C0 9.62663 0.703788 7.30655 2.02237 5.33316C3.34094 3.35977 5.21509 1.8217 7.4078 0.91345C9.60051 0.00519913 12.0133 -0.232441 14.3411 0.230582C16.6689 0.693605 18.8071 1.83649 20.4853 3.51472C22.1635 5.19296 23.3064 7.33115 23.7694 9.65892C24.2324 11.9867 23.9948 14.3995 23.0866 16.5922C22.1783 18.7849 20.6402 20.6591 18.6668 21.9776C16.6935 23.2962 14.3734 24 12 24C11.5858 24 11.25 23.6642 11.25 23.25C11.25 22.8358 11.5858 22.5 12 22.5C14.0767 22.5 16.1068 21.8842 17.8335 20.7304C19.5602 19.5767 20.906 17.9368 21.7007 16.0182C22.4955 14.0996 22.7034 11.9884 22.2982 9.95156C21.8931 7.91476 20.8931 6.04384 19.4246 4.57538C17.9562 3.10693 16.0853 2.1069 14.0484 1.70176Z" fill="#8B8C9E"/>
</g>
<defs>
<clipPath id="clip0_158_50658">
<rect width="24" height="24" fill="white"/>
</clipPath>
</defs>
</svg>
