<svg width="25" height="24" viewBox="0 0 25 24" fill="none" xmlns="http://www.w3.org/2000/svg">
<g id="people_team_regular">
<path id="Vector" d="M15.254 10C16.22 10 17.004 10.784 17.004 11.75V16.499C17.004 17.6927 16.5298 18.8376 15.6857 19.6817C14.8416 20.5258 13.6967 21 12.503 21C11.3093 21 10.1644 20.5258 9.32031 19.6817C8.47621 18.8376 8.002 17.6927 8.002 16.499V11.75C8.002 10.784 8.785 10 9.752 10H15.254ZM15.254 11.5H9.752C9.6857 11.5 9.62211 11.5263 9.57522 11.5732C9.52834 11.6201 9.502 11.6837 9.502 11.75V16.499C9.502 17.2949 9.81818 18.0582 10.381 18.621C10.9438 19.1838 11.7071 19.5 12.503 19.5C13.2989 19.5 14.0622 19.1838 14.625 18.621C15.1878 18.0582 15.504 17.2949 15.504 16.499V11.75C15.504 11.6837 15.4777 11.6201 15.4308 11.5732C15.3839 11.5263 15.3203 11.5 15.254 11.5ZM4.25 10H7.631C7.2782 10.4261 7.06274 10.949 7.013 11.5H4.25C4.1837 11.5 4.12011 11.5263 4.07322 11.5732C4.02634 11.6201 4 11.6837 4 11.75V14.999C3.99994 15.3769 4.0855 15.7499 4.25027 16.0899C4.41504 16.43 4.65473 16.7283 4.95133 16.9625C5.24793 17.1966 5.59374 17.3605 5.96277 17.4418C6.33179 17.5231 6.71445 17.5198 7.082 17.432C7.167 17.936 7.322 18.417 7.535 18.864C6.94228 19.0226 6.32103 19.0427 5.71929 18.9228C5.11756 18.8029 4.55145 18.5463 4.06475 18.1727C3.57805 17.7991 3.18379 17.3185 2.91246 16.7682C2.64114 16.2179 2.50001 15.6126 2.5 14.999V11.75C2.5 10.784 3.284 10 4.25 10ZM17.375 10H20.75C21.716 10 22.5 10.784 22.5 11.75V15C22.5001 15.6132 22.3593 16.2182 22.0884 16.7682C21.8175 17.3183 21.4237 17.7987 20.9376 18.1724C20.4514 18.546 19.8858 18.8029 19.2846 18.9232C18.6833 19.0435 18.0625 19.0239 17.47 18.866C17.684 18.418 17.839 17.937 17.925 17.433C18.2921 17.5198 18.674 17.5223 19.0423 17.4405C19.4105 17.3587 19.7554 17.1946 20.0512 16.9606C20.347 16.7265 20.586 16.4286 20.7503 16.089C20.9147 15.7495 21 15.3772 21 15V11.75C21 11.6837 20.9737 11.6201 20.9268 11.5732C20.8799 11.5263 20.8163 11.5 20.75 11.5H17.993C17.9433 10.949 17.7278 10.4261 17.375 10ZM12.5 3C13.2956 3 14.0587 3.31607 14.6213 3.87868C15.1839 4.44129 15.5 5.20435 15.5 6C15.5 6.79565 15.1839 7.55871 14.6213 8.12132C14.0587 8.68393 13.2956 9 12.5 9C11.7044 9 10.9413 8.68393 10.3787 8.12132C9.81607 7.55871 9.5 6.79565 9.5 6C9.5 5.20435 9.81607 4.44129 10.3787 3.87868C10.9413 3.31607 11.7044 3 12.5 3ZM19 4C19.663 4 20.2989 4.26339 20.7678 4.73223C21.2366 5.20107 21.5 5.83696 21.5 6.5C21.5 7.16304 21.2366 7.79893 20.7678 8.26777C20.2989 8.73661 19.663 9 19 9C18.337 9 17.7011 8.73661 17.2322 8.26777C16.7634 7.79893 16.5 7.16304 16.5 6.5C16.5 5.83696 16.7634 5.20107 17.2322 4.73223C17.7011 4.26339 18.337 4 19 4ZM6 4C6.66304 4 7.29893 4.26339 7.76777 4.73223C8.23661 5.20107 8.5 5.83696 8.5 6.5C8.5 7.16304 8.23661 7.79893 7.76777 8.26777C7.29893 8.73661 6.66304 9 6 9C5.33696 9 4.70107 8.73661 4.23223 8.26777C3.76339 7.79893 3.5 7.16304 3.5 6.5C3.5 5.83696 3.76339 5.20107 4.23223 4.73223C4.70107 4.26339 5.33696 4 6 4ZM12.5 4.5C12.1022 4.5 11.7206 4.65804 11.4393 4.93934C11.158 5.22064 11 5.60218 11 6C11 6.39782 11.158 6.77936 11.4393 7.06066C11.7206 7.34196 12.1022 7.5 12.5 7.5C12.8978 7.5 13.2794 7.34196 13.5607 7.06066C13.842 6.77936 14 6.39782 14 6C14 5.60218 13.842 5.22064 13.5607 4.93934C13.2794 4.65804 12.8978 4.5 12.5 4.5ZM19 5.5C18.7348 5.5 18.4804 5.60536 18.2929 5.79289C18.1054 5.98043 18 6.23478 18 6.5C18 6.76522 18.1054 7.01957 18.2929 7.20711C18.4804 7.39464 18.7348 7.5 19 7.5C19.2652 7.5 19.5196 7.39464 19.7071 7.20711C19.8946 7.01957 20 6.76522 20 6.5C20 6.23478 19.8946 5.98043 19.7071 5.79289C19.5196 5.60536 19.2652 5.5 19 5.5ZM6 5.5C5.73478 5.5 5.48043 5.60536 5.29289 5.79289C5.10536 5.98043 5 6.23478 5 6.5C5 6.76522 5.10536 7.01957 5.29289 7.20711C5.48043 7.39464 5.73478 7.5 6 7.5C6.26522 7.5 6.51957 7.39464 6.70711 7.20711C6.89464 7.01957 7 6.76522 7 6.5C7 6.23478 6.89464 5.98043 6.70711 5.79289C6.51957 5.60536 6.26522 5.5 6 5.5Z" fill="#8B8C9E"/>
</g>
</svg>
