<svg width="24" height="24" viewBox="0 0 24 24" fill="none" xmlns="http://www.w3.org/2000/svg">
<g id="number_format_regular">
<path id="Vector" d="M16.97 10.144C17.0151 9.9909 17.102 9.8534 17.221 9.74703C17.35 9.63403 17.577 9.50603 17.999 9.50603C18.761 9.50603 18.999 10.006 18.999 10.233C18.999 10.478 18.947 10.723 18.809 10.897C18.699 11.037 18.431 11.256 17.708 11.256C17.5091 11.256 17.3183 11.335 17.1777 11.4757C17.037 11.6163 16.958 11.8071 16.958 12.006C16.958 12.2049 17.037 12.3957 17.1777 12.5364C17.3183 12.677 17.5091 12.756 17.708 12.756C17.981 12.756 18.358 12.792 18.642 12.926C18.7457 12.9689 18.8367 13.0378 18.906 13.126C18.951 13.19 18.999 13.293 18.999 13.483C18.999 13.971 18.847 14.187 18.719 14.295C18.568 14.423 18.323 14.506 17.999 14.506C17.637 14.506 17.432 14.443 17.307 14.364C17.195 14.294 17.067 14.16 16.962 13.84C16.9312 13.7465 16.8823 13.6599 16.818 13.5852C16.7538 13.5106 16.6754 13.4493 16.5875 13.4049C16.4996 13.3605 16.4037 13.3339 16.3055 13.3265C16.2073 13.3192 16.1086 13.3312 16.015 13.362C15.9214 13.3928 15.8348 13.4417 15.7602 13.506C15.6855 13.5703 15.6243 13.6486 15.5799 13.7365C15.5355 13.8245 15.5089 13.9203 15.5015 14.0185C15.4941 14.1167 15.5062 14.2155 15.537 14.309C15.723 14.875 16.032 15.332 16.504 15.631C16.962 15.921 17.486 16.006 17.999 16.006C18.55 16.006 19.181 15.868 19.686 15.441C20.214 14.996 20.499 14.325 20.499 13.483C20.499 13.009 20.369 12.595 20.128 12.256C20.052 12.1497 19.9656 12.0512 19.87 11.962C19.9097 11.9196 19.9478 11.8755 19.984 11.83C20.422 11.28 20.499 10.638 20.499 10.233C20.5 9.16003 19.572 8.00603 18 8.00603C17.235 8.00603 16.649 8.25303 16.23 8.62203C15.825 8.97903 15.62 9.41103 15.529 9.73203C15.4788 9.92184 15.5051 10.1237 15.6021 10.2944C15.6992 10.4651 15.8593 10.5909 16.0481 10.6448C16.2368 10.6987 16.4392 10.6765 16.6118 10.5829C16.7844 10.4892 16.9133 10.3317 16.971 10.144H16.97ZM10.5 10.529C10.5 10.001 10.943 9.50603 11.485 9.50603C11.892 9.50603 12.22 9.69603 12.378 9.94003C12.514 10.15 12.596 10.506 12.285 11.035C12.135 11.29 11.909 11.517 11.603 11.759C11.451 11.879 11.288 11.996 11.11 12.122L11.036 12.174C10.884 12.281 10.721 12.396 10.564 12.514C9.82 13.075 9 13.861 9 15.256C9 15.67 9.336 16.006 9.75 16.006H13.201C13.3999 16.006 13.5907 15.927 13.7313 15.7864C13.872 15.6457 13.951 15.4549 13.951 15.256C13.951 15.0571 13.872 14.8663 13.7313 14.7257C13.5907 14.585 13.3999 14.506 13.201 14.506H10.688C10.848 14.224 11.111 13.981 11.467 13.713C11.604 13.61 11.747 13.51 11.899 13.401L11.977 13.347C12.156 13.22 12.347 13.083 12.534 12.937C12.906 12.642 13.294 12.279 13.579 11.795C14.136 10.847 14.125 9.87403 13.637 9.12303C13.17 8.40603 12.34 8.00603 11.486 8.00603C10.008 8.00603 9 9.28403 9 10.529C9 10.7279 9.07902 10.9187 9.21967 11.0594C9.36032 11.2 9.55109 11.279 9.75 11.279C9.94891 11.279 10.1397 11.2 10.2803 11.0594C10.421 10.9187 10.5 10.7279 10.5 10.529ZM4.915 11.744C5.126 11.604 5.33 11.444 5.523 11.269V15.256C5.523 15.4549 5.60202 15.6457 5.74267 15.7864C5.88332 15.927 6.07409 16.006 6.273 16.006C6.47191 16.006 6.66268 15.927 6.80333 15.7864C6.94398 15.6457 7.023 15.4549 7.023 15.256V8.75603C7.0245 8.57 6.9568 8.39006 6.83306 8.25115C6.70933 8.11223 6.53838 8.02426 6.35342 8.00432C6.16846 7.98438 5.98269 8.03389 5.83219 8.14324C5.68169 8.25258 5.57719 8.41396 5.539 8.59603C5.413 9.17403 4.848 9.98603 4.083 10.496C3.9199 10.6074 3.80729 10.7786 3.76963 10.9724C3.73196 11.1663 3.77228 11.3672 3.88182 11.5315C3.99137 11.6958 4.1613 11.8103 4.35473 11.8501C4.54817 11.8899 4.74949 11.8518 4.915 11.744Z" fill="#8B8C9E"/>
</g>
</svg>
