<svg width="18" height="18" viewBox="0 0 18 18" fill="none" xmlns="http://www.w3.org/2000/svg">
<g id="document_edit_regular">
<path id="Vector" d="M4.6875 2.625C4.53832 2.625 4.39524 2.68426 4.28975 2.78975C4.18426 2.89524 4.125 3.03832 4.125 3.1875V14.8125C4.125 15.123 4.377 15.375 4.6875 15.375H7.5225C7.445 15.7621 7.51738 16.1642 7.725 16.5H4.6875C4.23995 16.5 3.81073 16.3222 3.49426 16.0057C3.17779 15.6893 3 15.2601 3 14.8125V3.1875C3 2.73995 3.17779 2.31072 3.49426 1.99426C3.81073 1.67779 4.23995 1.5 4.6875 1.5H9.252C9.6 1.5 9.93375 1.638 10.1797 1.88475L14.6152 6.32025C14.862 6.56625 15 6.9 15 7.248V7.5H14.9025C14.8196 7.49585 14.7364 7.49585 14.6535 7.5H10.5C10.1022 7.5 9.72064 7.34196 9.43934 7.06066C9.15804 6.77936 9 6.39782 9 6V2.625H4.6875ZM10.125 3.42V6C10.125 6.09946 10.1645 6.19484 10.2348 6.26517C10.3052 6.33549 10.4005 6.375 10.5 6.375H13.08L10.125 3.42Z" fill="#8B8C9E"/>
<path id="Vector_2" d="M14.7848 8.25H14.7863C15.1252 8.25028 15.4565 8.35101 15.7382 8.53947C16.0199 8.72793 16.2394 8.99566 16.3691 9.30883C16.4987 9.622 16.5326 9.96656 16.4664 10.299C16.4003 10.6314 16.2371 10.9368 15.9976 11.1765L11.5711 15.603C11.3131 15.8613 10.9899 16.0446 10.6358 16.1333L9.26255 16.476C9.126 16.5101 8.98294 16.5083 8.8473 16.4707C8.71166 16.4331 8.58806 16.361 8.48854 16.2615C8.38901 16.162 8.31695 16.0384 8.27936 15.9028C8.24178 15.7671 8.23995 15.6241 8.27405 15.4875L8.6168 14.115C8.7053 13.7603 8.8883 13.437 9.14705 13.179L13.5736 8.7525C13.7324 8.5931 13.9212 8.46665 14.129 8.38041C14.3369 8.29418 14.5598 8.24986 14.7848 8.25Z" fill="#8B8C9E"/>
</g>
</svg>
