<svg width="24" height="24" viewBox="0 0 24 24" fill="none" xmlns="http://www.w3.org/2000/svg">
<g id="calendar_end_regular">
<path id="Vector" d="M6.25 3C5.38805 3 4.5614 3.34241 3.9519 3.9519C3.34241 4.5614 3 5.38805 3 6.25V17.75C3 18.612 3.34241 19.4386 3.9519 20.0481C4.5614 20.6576 5.38805 21 6.25 21H17.75C18.612 21 19.4386 20.6576 20.0481 20.0481C20.6576 19.4386 21 18.612 21 17.75V6.25C21 5.38805 20.6576 4.5614 20.0481 3.9519C19.4386 3.34241 18.612 3 17.75 3H6.25ZM4.5 8.5H19.5V17.75C19.5 18.2141 19.3156 18.6592 18.9874 18.9874C18.6592 19.3156 18.2141 19.5 17.75 19.5H6.25C5.78587 19.5 5.34075 19.3156 5.01256 18.9874C4.68437 18.6592 4.5 18.2141 4.5 17.75V8.5ZM16.25 14.5C15.9185 14.5 15.6005 14.6317 15.3661 14.8661C15.1317 15.1005 15 15.4185 15 15.75C15 16.0815 15.1317 16.3995 15.3661 16.6339C15.6005 16.8683 15.9185 17 16.25 17C16.5815 17 16.8995 16.8683 17.1339 16.6339C17.3683 16.3995 17.5 16.0815 17.5 15.75C17.5 15.4185 17.3683 15.1005 17.1339 14.8661C16.8995 14.6317 16.5815 14.5 16.25 14.5ZM6.25 4.5H17.75C18.716 4.5 19.5 5.284 19.5 6.25V7H4.5V6.25C4.5 5.284 5.284 4.5 6.25 4.5Z" fill="#8B8C9E"/>
</g>
</svg>
