<svg width="24" height="24" viewBox="0 0 24 24" fill="none" xmlns="http://www.w3.org/2000/svg">
<g id="calendar_add_regular">
<path id="Vector" d="M17.5 12C18.9587 12 20.3576 12.5795 21.3891 13.6109C22.4205 14.6424 23 16.0413 23 17.5C23 18.9587 22.4205 20.3576 21.3891 21.3891C20.3576 22.4205 18.9587 23 17.5 23C16.0413 23 14.6424 22.4205 13.6109 21.3891C12.5795 20.3576 12 18.9587 12 17.5C12 16.0413 12.5795 14.6424 13.6109 13.6109C14.6424 12.5795 16.0413 12 17.5 12ZM17.75 3C18.612 3 19.4386 3.34241 20.0481 3.9519C20.6576 4.5614 21 5.38805 21 6.25L21.001 12.023C20.5336 11.7229 20.0294 11.4843 19.501 11.313L19.5 8.5H4.5V17.75C4.5 18.716 5.284 19.5 6.25 19.5H11.314C11.486 20.034 11.726 20.538 12.023 21.001L6.25 21C5.38805 21 4.5614 20.6576 3.9519 20.0481C3.34241 19.4386 3 18.612 3 17.75V6.25C3 5.38805 3.34241 4.5614 3.9519 3.9519C4.5614 3.34241 5.38805 3 6.25 3H17.75ZM17.5 14L17.41 14.008C17.3101 14.0263 17.2181 14.0745 17.1463 14.1463C17.0745 14.2181 17.0263 14.3101 17.008 14.41L17 14.5V17H14.5L14.41 17.008C14.3101 17.0263 14.2181 17.0745 14.1463 17.1463C14.0745 17.2181 14.0263 17.3101 14.008 17.41L14 17.5L14.008 17.59C14.0263 17.6899 14.0745 17.7819 14.1463 17.8537C14.2181 17.9255 14.3101 17.9737 14.41 17.992L14.5 18H17V20.5L17.008 20.59C17.0263 20.6899 17.0745 20.7819 17.1463 20.8537C17.2181 20.9255 17.3101 20.9737 17.41 20.992L17.5 21L17.59 20.992C17.6899 20.9737 17.7819 20.9255 17.8537 20.8537C17.9255 20.7819 17.9737 20.6899 17.992 20.59L18 20.5V18H20.5L20.59 17.992C20.6899 17.9737 20.7819 17.9255 20.8537 17.8537C20.9255 17.7819 20.9737 17.6899 20.992 17.59L21 17.5L20.992 17.41C20.9737 17.3101 20.9255 17.2181 20.8537 17.1463C20.7819 17.0745 20.6899 17.0263 20.59 17.008L20.5 17H18V14.5L17.992 14.41C17.9737 14.3101 17.9255 14.2181 17.8537 14.1463C17.7819 14.0745 17.6899 14.0263 17.59 14.008L17.5 14ZM17.75 4.5H6.25C5.78587 4.5 5.34075 4.68437 5.01256 5.01256C4.68437 5.34075 4.5 5.78587 4.5 6.25V7H19.5V6.25C19.5 5.78587 19.3156 5.34075 18.9874 5.01256C18.6592 4.68437 18.2141 4.5 17.75 4.5Z" fill="#8B8C9E"/>
</g>
</svg>
