<svg width="24" height="25" viewBox="0 0 24 25" fill="none" xmlns="http://www.w3.org/2000/svg">
<g id="text_description_regular">
<path id="Vector" d="M2.75002 17.5H15.25C15.44 17.5001 15.623 17.5722 15.7618 17.702C15.9007 17.8317 15.9851 18.0093 15.998 18.1989C16.011 18.3885 15.9515 18.5759 15.8316 18.7233C15.7117 18.8707 15.5403 18.9671 15.352 18.993L15.25 19H2.75002C2.55999 18.9999 2.37707 18.9278 2.23822 18.798C2.09937 18.6683 2.01494 18.4907 2.00199 18.3011C1.98904 18.1115 2.04853 17.9241 2.16845 17.7767C2.28837 17.6293 2.45977 17.5329 2.64802 17.507L2.75002 17.5H15.25H2.75002ZM2.75002 13.5H21.25C21.44 13.5001 21.623 13.5722 21.7618 13.702C21.9007 13.8317 21.9851 14.0093 21.998 14.1989C22.011 14.3885 21.9515 14.5759 21.8316 14.7233C21.7117 14.8707 21.5403 14.9671 21.352 14.993L21.25 15H2.75002C2.55999 14.9999 2.37707 14.9278 2.23822 14.798C2.09937 14.6683 2.01494 14.4907 2.00199 14.3011C1.98904 14.1115 2.04853 13.9241 2.16845 13.7767C2.28837 13.6293 2.45977 13.5329 2.64802 13.507L2.75002 13.5H21.25H2.75002ZM2.75002 9.5H21.25C21.44 9.50006 21.623 9.57224 21.7618 9.70197C21.9007 9.8317 21.9851 10.0093 21.998 10.1989C22.011 10.3885 21.9515 10.5759 21.8316 10.7233C21.7117 10.8707 21.5403 10.9671 21.352 10.993L21.25 11H2.75002C2.55999 10.9999 2.37707 10.9278 2.23822 10.798C2.09937 10.6683 2.01494 10.4907 2.00199 10.3011C1.98904 10.1115 2.04853 9.92411 2.16845 9.7767C2.28837 9.62929 2.45977 9.5329 2.64802 9.507L2.75002 9.5H21.25H2.75002ZM2.75002 5.5H21.25C21.44 5.50006 21.623 5.57224 21.7618 5.70197C21.9007 5.8317 21.9851 6.0093 21.998 6.19888C22.011 6.38846 21.9515 6.57589 21.8316 6.7233C21.7117 6.87071 21.5403 6.9671 21.352 6.993L21.25 7H2.75002C2.55999 6.99994 2.37707 6.92776 2.23822 6.79803C2.09937 6.6683 2.01494 6.4907 2.00199 6.30112C1.98904 6.11154 2.04853 5.92411 2.16845 5.7767C2.28837 5.62929 2.45977 5.5329 2.64802 5.507L2.75002 5.5H21.25H2.75002Z" fill="#8B8C9E"/>
</g>
</svg>
