<svg width="20" height="20" viewBox="0 0 20 20" fill="none" xmlns="http://www.w3.org/2000/svg">
<g id="Icon Right">
<path id="Vector" d="M3.6642 3.79512L3.72503 3.72511C3.83085 3.61927 3.97115 3.55491 4.12041 3.54375C4.26966 3.53258 4.41797 3.57535 4.53836 3.66428L4.60836 3.72511L10 9.11595L15.3917 3.72428C15.4494 3.66462 15.5184 3.61703 15.5946 3.58432C15.6709 3.5516 15.7529 3.53439 15.8359 3.53371C15.9189 3.53303 16.0012 3.54888 16.078 3.58035C16.1548 3.61181 16.2245 3.65825 16.2832 3.71696C16.3418 3.77567 16.3882 3.84547 16.4196 3.9223C16.451 3.99912 16.4668 4.08143 16.466 4.16442C16.4653 4.2474 16.448 4.32941 16.4152 4.40564C16.3824 4.48188 16.3348 4.55082 16.275 4.60845L10.8842 10.0001L16.2759 15.3918C16.3816 15.4977 16.4458 15.6381 16.4568 15.7873C16.4678 15.9366 16.4249 16.0848 16.3359 16.2051L16.275 16.2751C16.1692 16.381 16.0289 16.4453 15.8797 16.4565C15.7304 16.4676 15.5821 16.4249 15.4617 16.3359L15.3917 16.2751L10 10.8843L4.60836 16.2759C4.49043 16.3897 4.33253 16.4527 4.16865 16.4512C4.00478 16.4497 3.84805 16.3839 3.73223 16.2679C3.6164 16.152 3.55074 15.9952 3.5494 15.8313C3.54805 15.6675 3.61112 15.5096 3.72503 15.3918L9.11586 10.0001L3.7242 4.60845C3.61847 4.50252 3.55427 4.36217 3.54326 4.21292C3.53225 4.06366 3.57516 3.91541 3.6642 3.79512L3.72503 3.72511L3.6642 3.79512Z" fill="#8B8C9E"/>
</g>
</svg>
