<svg width="25" height="24" viewBox="0 0 25 24" fill="none" xmlns="http://www.w3.org/2000/svg">
<g id="navigation_filled">
<path id="Vector" d="M3.50001 17H21.5C21.7549 17.0003 22 17.0979 22.1854 17.2728C22.3707 17.4478 22.4822 17.687 22.4972 17.9414C22.5121 18.1958 22.4293 18.4464 22.2657 18.6418C22.1022 18.8373 21.8701 18.9629 21.617 18.993L21.5 19H3.50001C3.24513 18.9997 2.99997 18.9021 2.81464 18.7272C2.6293 18.5522 2.51777 18.313 2.50283 18.0586C2.4879 17.8042 2.57068 17.5536 2.73427 17.3582C2.89786 17.1627 3.12991 17.0371 3.38301 17.007L3.50001 17H21.5H3.50001ZM3.50001 11L21.5 10.998C21.7549 10.9983 22 11.0959 22.1854 11.2708C22.3707 11.4458 22.4822 11.685 22.4972 11.9394C22.5121 12.1938 22.4293 12.4444 22.2657 12.6398C22.1022 12.8353 21.8701 12.9609 21.617 12.991L21.5 12.998L3.50001 13C3.24513 12.9997 2.99997 12.9021 2.81464 12.7272C2.6293 12.5522 2.51777 12.313 2.50283 12.0586C2.4879 11.8042 2.57068 11.5536 2.73427 11.3582C2.89786 11.1627 3.12991 11.0371 3.38301 11.007L3.50001 11L21.5 10.998L3.50001 11ZM3.50001 5H21.5C21.7549 5.00028 22 5.09788 22.1854 5.27285C22.3707 5.44782 22.4822 5.68695 22.4972 5.94139C22.5121 6.19584 22.4293 6.44638 22.2657 6.64183C22.1022 6.83729 21.8701 6.9629 21.617 6.993L21.5 7H3.50001C3.24513 6.99972 2.99997 6.90212 2.81464 6.72715C2.6293 6.55218 2.51777 6.31305 2.50283 6.05861C2.4879 5.80416 2.57068 5.55362 2.73427 5.35817C2.89786 5.16271 3.12991 5.0371 3.38301 5.007L3.50001 5H21.5H3.50001Z" fill="#262842"/>
</g>
</svg>
