<svg width="25" height="24" viewBox="0 0 25 24" fill="none" xmlns="http://www.w3.org/2000/svg">
<g id="toolbox_regular">
<path id="Vector" d="M7.5 6.25195V6.99995H4.75C4.15326 6.99995 3.58097 7.23701 3.15901 7.65896C2.73705 8.08092 2.5 8.65322 2.5 9.24995V17.747C2.5 18.3437 2.73705 18.916 3.15901 19.3379C3.58097 19.7599 4.15326 19.997 4.75 19.997H20.25C20.8467 19.997 21.419 19.7599 21.841 19.3379C22.2629 18.916 22.5 18.3437 22.5 17.747V9.24995C22.5 8.65322 22.2629 8.08092 21.841 7.65896C21.419 7.23701 20.8467 6.99995 20.25 6.99995H17.5V6.25195C17.5 5.65522 17.2629 5.08292 16.841 4.66096C16.419 4.23901 15.8467 4.00195 15.25 4.00195H9.75C9.15326 4.00195 8.58097 4.23901 8.15901 4.66096C7.73705 5.08292 7.5 5.65522 7.5 6.25195ZM9.75 5.50195H15.25C15.4489 5.50195 15.6397 5.58097 15.7803 5.72162C15.921 5.86228 16 6.05304 16 6.25195V6.99995H9V6.25195C9 6.05304 9.07902 5.86228 9.21967 5.72162C9.36032 5.58097 9.55109 5.50195 9.75 5.50195ZM7.5 8.50195H9V8.49995H16V8.50195H17.5V8.49995H20.25C20.4489 8.49995 20.6397 8.57897 20.7803 8.71962C20.921 8.86028 21 9.05104 21 9.24995V11.5H18V10.75C18 10.551 17.921 10.3603 17.7803 10.2196C17.6397 10.079 17.4489 9.99995 17.25 9.99995C17.0511 9.99995 16.8603 10.079 16.7197 10.2196C16.579 10.3603 16.5 10.551 16.5 10.75V11.5H8.5V10.75C8.5 10.551 8.42098 10.3603 8.28033 10.2196C8.13968 10.079 7.94891 9.99995 7.75 9.99995C7.55109 9.99995 7.36032 10.079 7.21967 10.2196C7.07902 10.3603 7 10.551 7 10.75V11.5H4V9.24995C4 9.05104 4.07902 8.86028 4.21967 8.71962C4.36032 8.57897 4.55109 8.49995 4.75 8.49995H7.5V8.50195ZM16.5 13V14.25C16.5 14.4489 16.579 14.6396 16.7197 14.7803C16.8603 14.9209 17.0511 15 17.25 15C17.4489 15 17.6397 14.9209 17.7803 14.7803C17.921 14.6396 18 14.4489 18 14.25V13H21V17.747C21 17.9459 20.921 18.1366 20.7803 18.2773C20.6397 18.4179 20.4489 18.497 20.25 18.497H4.75C4.55109 18.497 4.36032 18.4179 4.21967 18.2773C4.07902 18.1366 4 17.9459 4 17.747V13H7V14.25C7 14.4489 7.07902 14.6396 7.21967 14.7803C7.36032 14.9209 7.55109 15 7.75 15C7.94891 15 8.13968 14.9209 8.28033 14.7803C8.42098 14.6396 8.5 14.4489 8.5 14.25V13H16.5Z" fill="#8B8C9E"/>
</g>
</svg>
