<svg width="24" height="24" viewBox="0 0 24 24" fill="none" xmlns="http://www.w3.org/2000/svg">
<g id="chevron_down_regular">
<path id="Vector" d="M4.22001 8.47015C4.36064 8.3297 4.55126 8.25081 4.75001 8.25081C4.94876 8.25081 5.13939 8.3297 5.28001 8.47015L12 15.1902L18.72 8.47015C18.7887 8.39647 18.8715 8.33736 18.9635 8.29637C19.0555 8.25538 19.1548 8.23334 19.2555 8.23156C19.3562 8.22979 19.4562 8.24831 19.5496 8.28603C19.643 8.32375 19.7278 8.3799 19.799 8.45112C19.8703 8.52233 19.9264 8.60717 19.9641 8.70056C20.0019 8.79394 20.0204 8.89397 20.0186 8.99468C20.0168 9.09538 19.9948 9.19469 19.9538 9.28669C19.9128 9.37869 19.8537 9.46149 19.78 9.53015L12.53 16.7802C12.3894 16.9206 12.1988 16.9995 12 16.9995C11.8013 16.9995 11.6106 16.9206 11.47 16.7802L4.22001 9.53015C4.07956 9.38953 4.00067 9.1989 4.00067 9.00015C4.00067 8.8014 4.07956 8.61078 4.22001 8.47015Z" fill="#8B8C9E"/>
</g>
</svg>
