<svg width="25" height="24" viewBox="0 0 25 24" fill="none" xmlns="http://www.w3.org/2000/svg">
<g id="home_regular">
<path id="Vector" d="M11.05 2.53198C11.4558 2.19 11.9693 2.00244 12.5 2.00244C13.0307 2.00244 13.5442 2.19 13.95 2.53198L20.7 8.22398C21.207 8.65198 21.5 9.28098 21.5 9.94398V19.747C21.5 20.2111 21.3156 20.6562 20.9874 20.9844C20.6592 21.3126 20.2141 21.497 19.75 21.497H16.25C15.7859 21.497 15.3408 21.3126 15.0126 20.9844C14.6844 20.6562 14.5 20.2111 14.5 19.747V14.247C14.5 14.1807 14.4737 14.1171 14.4268 14.0702C14.3799 14.0233 14.3163 13.997 14.25 13.997H10.75C10.6837 13.997 10.6201 14.0233 10.5732 14.0702C10.5263 14.1171 10.5 14.1807 10.5 14.247V19.747C10.5 20.2111 10.3156 20.6562 9.98744 20.9844C9.65925 21.3126 9.21413 21.497 8.75 21.497H5.25C5.02019 21.497 4.79262 21.4517 4.5803 21.3638C4.36798 21.2758 4.17507 21.1469 4.01256 20.9844C3.85006 20.8219 3.72116 20.629 3.63321 20.4167C3.54527 20.2044 3.5 19.9768 3.5 19.747V9.94398C3.5 9.28098 3.793 8.65198 4.3 8.22398L11.05 2.53198ZM12.983 3.67898C12.8478 3.56516 12.6767 3.50275 12.5 3.50275C12.3233 3.50275 12.1522 3.56516 12.017 3.67898L5.267 9.36998C5.18347 9.44029 5.1163 9.528 5.07018 9.62697C5.02406 9.72594 5.00011 9.83379 5 9.94298V19.746C5 19.884 5.112 19.996 5.25 19.996H8.75C8.8163 19.996 8.87989 19.9696 8.92678 19.9228C8.97366 19.8759 9 19.8123 9 19.746V14.246C9 13.279 9.784 12.496 10.75 12.496H14.25C15.216 12.496 16 13.279 16 14.246V19.746C16 19.884 16.112 19.996 16.25 19.996H19.75C19.8163 19.996 19.8799 19.9696 19.9268 19.9228C19.9737 19.8759 20 19.8123 20 19.746V9.94398C19.9999 9.83479 19.9759 9.72694 19.9298 9.62797C19.8837 9.529 19.8165 9.44129 19.733 9.37098L12.983 3.67898Z" fill="#8B8C9E"/>
</g>
</svg>
