<svg width="22" height="22" viewBox="0 0 22 22" fill="none" xmlns="http://www.w3.org/2000/svg">
<g id="cloud_arrow_down_regular">
<path id="Vector" d="M5.57967 7.10458C5.79663 5.88558 6.43567 4.78182 7.3848 3.9867C8.33392 3.19159 9.53259 2.75586 10.7708 2.75586C12.0089 2.75586 13.2076 3.19159 14.1567 3.9867C15.1058 4.78182 15.7449 5.88558 15.9618 7.10458H16.0416C16.5659 7.10455 17.0841 7.21695 17.5612 7.4342C18.0384 7.65145 18.4634 7.9685 18.8076 8.36397C19.1518 8.75944 19.4072 9.22412 19.5566 9.72668C19.7059 10.2292 19.7458 10.758 19.6734 11.2773C19.2561 10.7843 18.7617 10.362 18.2095 10.0269C18.0543 9.57536 17.7619 9.18353 17.3733 8.90614C16.9846 8.62874 16.5191 8.47962 16.0416 8.47958H15.3486C15.172 8.4798 15.0021 8.41204 14.8741 8.29036C14.7461 8.16867 14.6698 8.0024 14.6611 7.826C14.6103 6.82836 14.1782 5.88834 13.4541 5.20018C12.73 4.51202 11.7692 4.1283 10.7703 4.1283C9.77136 4.1283 8.81058 4.51202 8.08649 5.20018C7.36239 5.88834 6.93031 6.82836 6.8795 7.826C6.8708 8.00224 6.79466 8.16838 6.66686 8.29004C6.53906 8.4117 6.36937 8.47956 6.19292 8.47958H5.49992C4.89213 8.47958 4.30924 8.72103 3.87947 9.1508C3.44969 9.58057 3.20825 10.1635 3.20825 10.7713C3.20825 11.379 3.44969 11.9619 3.87947 12.3917C4.30924 12.8215 4.89213 13.0629 5.49992 13.0629H9.53325C9.36965 13.5065 9.25978 13.9682 9.206 14.4379H5.49992C4.52746 14.4379 3.59483 14.0516 2.90719 13.364C2.21956 12.6763 1.83325 11.7437 1.83325 10.7713C1.83325 9.79879 2.21956 8.86616 2.90719 8.17853C3.59483 7.49089 4.52746 7.10458 5.49992 7.10458H5.57967ZM20.1666 15.1254C20.1666 13.7883 19.6354 12.5059 18.6899 11.5604C17.7444 10.6149 16.4621 10.0838 15.1249 10.0838C13.7878 10.0838 12.5054 10.6149 11.5599 11.5604C10.6144 12.5059 10.0833 13.7883 10.0833 15.1254C10.0833 16.4626 10.6144 17.7449 11.5599 18.6904C12.5054 19.6359 13.7878 20.1671 15.1249 20.1671C16.4621 20.1671 17.7444 19.6359 18.6899 18.6904C19.6354 17.7449 20.1666 16.4626 20.1666 15.1254ZM14.6666 12.3754C14.6666 12.2539 14.7149 12.1373 14.8008 12.0513C14.8868 11.9654 15.0034 11.9171 15.1249 11.9171C15.2465 11.9171 15.3631 11.9654 15.449 12.0513C15.535 12.1373 15.5833 12.2539 15.5833 12.3754V16.769L17.0921 15.2593C17.1347 15.2166 17.1853 15.1828 17.241 15.1598C17.2966 15.1367 17.3563 15.1248 17.4166 15.1248C17.4768 15.1248 17.5365 15.1367 17.5922 15.1598C17.6479 15.1828 17.6985 15.2166 17.7411 15.2593C17.7837 15.3019 17.8175 15.3525 17.8406 15.4081C17.8636 15.4638 17.8755 15.5235 17.8755 15.5838C17.8755 15.644 17.8636 15.7037 17.8406 15.7594C17.8175 15.815 17.7837 15.8656 17.7411 15.9083L15.4494 18.1999C15.4068 18.2426 15.3563 18.2765 15.3006 18.2996C15.2449 18.3227 15.1852 18.3346 15.1249 18.3346C15.0646 18.3346 15.0049 18.3227 14.9493 18.2996C14.8936 18.2765 14.843 18.2426 14.8004 18.1999L12.5088 15.9083C12.4227 15.8222 12.3743 15.7055 12.3743 15.5838C12.3743 15.462 12.4227 15.3453 12.5088 15.2593C12.5948 15.1732 12.7115 15.1248 12.8333 15.1248C12.955 15.1248 13.0717 15.1732 13.1578 15.2593L14.6666 16.769V12.3754Z" fill="#8B8C9E"/>
</g>
</svg>
