<svg width="20" height="20" viewBox="0 0 20 20" fill="none" xmlns="http://www.w3.org/2000/svg">
<g id="chevron_right_regular">
<path id="Vector" d="M7.0583 3.51665C6.94126 3.63383 6.87552 3.79269 6.87552 3.95831C6.87552 4.12394 6.94126 4.28279 7.0583 4.39998L12.6583 9.99998L7.0583 15.6C6.99689 15.6572 6.94764 15.7262 6.91348 15.8029C6.87932 15.8795 6.86095 15.9623 6.85947 16.0462C6.85799 16.1301 6.87343 16.2135 6.90486 16.2913C6.9363 16.3691 6.98308 16.4398 7.04243 16.4992C7.10178 16.5585 7.17248 16.6053 7.2503 16.6367C7.32812 16.6682 7.41148 16.6836 7.4954 16.6821C7.57932 16.6807 7.66208 16.6623 7.73875 16.6281C7.81541 16.594 7.88441 16.5447 7.94163 16.4833L13.9833 10.4416C14.1003 10.3245 14.1661 10.1656 14.1661 9.99998C14.1661 9.83435 14.1003 9.6755 13.9833 9.55831L7.94163 3.51665C7.82444 3.3996 7.66559 3.33386 7.49997 3.33386C7.33434 3.33386 7.17549 3.3996 7.0583 3.51665Z" fill="#8B8C9E"/>
</g>
</svg>
