<svg width="24" height="24" viewBox="0 0 24 24" fill="none" xmlns="http://www.w3.org/2000/svg">
<g id="options_regular">
<path id="Vector" d="M8.74998 13.5C9.48134 13.4999 10.1914 13.7464 10.7653 14.1997C11.3392 14.653 11.7436 15.2865 11.913 15.998L21.25 16C21.44 16.0001 21.6229 16.0722 21.7618 16.202C21.9006 16.3317 21.9851 16.5093 21.998 16.6989C22.011 16.8885 21.9515 17.0759 21.8316 17.2233C21.7116 17.3707 21.5402 17.4671 21.352 17.493L21.25 17.5H11.913C11.7439 18.2118 11.3397 18.8457 10.7657 19.2993C10.1918 19.753 9.48157 19.9997 8.74998 19.9997C8.0184 19.9997 7.3082 19.753 6.73423 19.2993C6.16025 18.8457 5.75605 18.2118 5.58698 17.5H2.74998C2.55996 17.4999 2.37704 17.4278 2.23819 17.298C2.09934 17.1683 2.01491 16.9907 2.00196 16.8011C1.98901 16.6115 2.0485 16.4241 2.16842 16.2767C2.28833 16.1293 2.45973 16.0329 2.64798 16.007L2.74998 16H5.58698C5.75599 15.2882 6.16017 14.6542 6.73415 14.2005C7.30813 13.7468 8.01836 13.5 8.74998 13.5ZM8.74998 15C8.38709 15 8.03316 15.1127 7.73719 15.3227C7.44122 15.5327 7.21784 15.8295 7.09798 16.172L7.07698 16.235L7.03798 16.383C6.98062 16.6525 6.98747 16.9317 7.05798 17.198L7.09798 17.328L7.12298 17.397C7.25441 17.729 7.48427 18.0129 7.78171 18.2106C8.07916 18.4082 8.42994 18.5101 8.78697 18.5026C9.144 18.4951 9.49018 18.3785 9.77905 18.1685C10.0679 17.9586 10.2856 17.6653 10.403 17.328L10.443 17.198L10.425 17.258C10.505 16.9939 10.5215 16.7147 10.473 16.443L10.443 16.306L10.423 16.236L10.376 16.102C10.2463 15.7767 10.0221 15.4978 9.73218 15.3014C9.4423 15.1049 9.10016 14.9999 8.74998 15ZM15.25 4C15.9816 4.00002 16.6918 4.24681 17.2658 4.70048C17.8398 5.15415 18.244 5.78817 18.413 6.5H21.25C21.44 6.50006 21.6229 6.57224 21.7618 6.70197C21.9006 6.8317 21.9851 7.0093 21.998 7.19888C22.011 7.38846 21.9515 7.57589 21.8316 7.7233C21.7116 7.87071 21.5402 7.9671 21.352 7.993L21.25 8H18.413C18.2439 8.71178 17.8397 9.34573 17.2657 9.79934C16.6918 10.253 15.9816 10.4997 15.25 10.4997C14.5184 10.4997 13.8082 10.253 13.2342 9.79934C12.6602 9.34573 12.256 8.71178 12.087 8H2.74998C2.55996 7.99994 2.37704 7.92776 2.23819 7.79803C2.09934 7.6683 2.01491 7.4907 2.00196 7.30112C1.98901 7.11154 2.0485 6.92411 2.16842 6.7767C2.28833 6.62929 2.45973 6.5329 2.64798 6.507L2.74998 6.5L12.087 6.498C12.2564 5.78654 12.6607 5.15297 13.2347 4.6997C13.8086 4.24642 14.5186 3.99991 15.25 4ZM15.25 5.5C14.887 5.50003 14.533 5.61295 14.237 5.82311C13.941 6.03328 13.7177 6.33029 13.598 6.673L13.577 6.735L13.539 6.883C13.4813 7.1524 13.4878 7.43158 13.558 7.698L13.598 7.828L13.623 7.897C13.7543 8.22908 13.9841 8.51303 14.2815 8.71074C14.5788 8.90845 14.9296 9.01045 15.2866 9.00305C15.6436 8.99565 15.9899 8.8792 16.2788 8.66933C16.5677 8.45947 16.7855 8.16624 16.903 7.829L16.943 7.698L16.925 7.758C17.005 7.49392 17.0215 7.21465 16.973 6.943L16.943 6.806L16.923 6.736L16.876 6.602C16.7463 6.27672 16.5221 5.99781 16.2322 5.80136C15.9423 5.6049 15.6002 5.49992 15.25 5.5Z" fill="white"/>
</g>
</svg>
