<svg width="24" height="24" viewBox="0 0 24 24" fill="none" xmlns="http://www.w3.org/2000/svg">
<g id="calendar_start_regular">
<path id="Vector" d="M17.75 3C18.612 3 19.4386 3.34241 20.0481 3.9519C20.6576 4.5614 21 5.38805 21 6.25V17.75C21 18.612 20.6576 19.4386 20.0481 20.0481C19.4386 20.6576 18.612 21 17.75 21H6.25C5.38805 21 4.5614 20.6576 3.9519 20.0481C3.34241 19.4386 3 18.612 3 17.75V6.25C3 5.38805 3.34241 4.5614 3.9519 3.9519C4.5614 3.34241 5.38805 3 6.25 3H17.75ZM19.5 8.5H4.5V17.75C4.5 18.716 5.284 19.5 6.25 19.5H17.75C18.2141 19.5 18.6592 19.3156 18.9874 18.9874C19.3156 18.6592 19.5 18.2141 19.5 17.75V8.5ZM7.75 10.5C8.08152 10.5 8.39946 10.6317 8.63388 10.8661C8.8683 11.1005 9 11.4185 9 11.75C9 12.0815 8.8683 12.3995 8.63388 12.6339C8.39946 12.8683 8.08152 13 7.75 13C7.41848 13 7.10054 12.8683 6.86612 12.6339C6.6317 12.3995 6.5 12.0815 6.5 11.75C6.5 11.4185 6.6317 11.1005 6.86612 10.8661C7.10054 10.6317 7.41848 10.5 7.75 10.5ZM17.75 4.5H6.25C5.78587 4.5 5.34075 4.68437 5.01256 5.01256C4.68437 5.34075 4.5 5.78587 4.5 6.25V7H19.5V6.25C19.5 5.78587 19.3156 5.34075 18.9874 5.01256C18.6592 4.68437 18.2141 4.5 17.75 4.5Z" fill="#8B8C9E"/>
</g>
</svg>
