<svg width="25" height="24" viewBox="0 0 25 24" fill="none" xmlns="http://www.w3.org/2000/svg">
<g id="chat_regular">
<path id="Vector" d="M12.5 2C18.023 2 22.5 6.477 22.5 12C22.5 17.523 18.023 22 12.5 22C10.904 22.0022 9.33083 21.6208 7.91301 20.888L4.08701 21.955C3.87355 22.0146 3.64809 22.0163 3.43373 21.9601C3.21937 21.9038 3.02382 21.7916 2.86712 21.6349C2.71041 21.4782 2.59818 21.2826 2.54194 21.0683C2.48569 20.8539 2.48744 20.6285 2.54701 20.415L3.61501 16.592C2.88036 15.1729 2.49793 13.5979 2.50001 12C2.50001 6.477 6.97701 2 12.5 2ZM12.5 3.5C10.2457 3.5 8.08366 4.39553 6.4896 5.98959C4.89554 7.58365 4.00001 9.74566 4.00001 12C4.00001 13.47 4.37301 14.883 5.07301 16.137L5.22301 16.407L4.11101 20.391L8.09801 19.279L8.36801 19.429C9.50239 20.0597 10.7661 20.4222 12.0624 20.4888C13.3586 20.5554 14.6528 20.3242 15.8458 19.8131C17.0389 19.3019 18.099 18.5244 18.945 17.54C19.7909 16.5556 20.4002 15.3906 20.7261 14.1343C21.052 12.8779 21.0858 11.5636 20.825 10.2922C20.5643 9.02073 20.0158 7.82589 19.2216 6.79927C18.4275 5.77264 17.4088 4.94152 16.2437 4.36962C15.0786 3.79773 13.7979 3.50025 12.5 3.5ZM9.25001 13H13.748C13.938 13.0001 14.1209 13.0722 14.2598 13.202C14.3987 13.3317 14.4831 13.5093 14.496 13.6989C14.509 13.8885 14.4495 14.0759 14.3296 14.2233C14.2097 14.3707 14.0383 14.4671 13.85 14.493L13.748 14.5H9.25001C9.05999 14.4999 8.87707 14.4278 8.73822 14.298C8.59937 14.1683 8.51493 13.9907 8.50198 13.8011C8.48903 13.6115 8.54852 13.4241 8.66844 13.2767C8.78836 13.1293 8.95976 13.0329 9.14801 13.007L9.25001 13H13.748H9.25001ZM9.25001 9.5H15.755C15.9449 9.50031 16.1277 9.57267 16.2664 9.70248C16.405 9.83229 16.4893 10.0099 16.5021 10.1994C16.5149 10.3889 16.4553 10.5762 16.3354 10.7235C16.2155 10.8708 16.0442 10.9671 15.856 10.993L15.755 11H9.25001C9.05999 10.9999 8.87707 10.9278 8.73822 10.798C8.59937 10.6683 8.51493 10.4907 8.50198 10.3011C8.48903 10.1115 8.54852 9.92411 8.66844 9.7767C8.78836 9.62929 8.95976 9.5329 9.14801 9.507L9.25001 9.5H15.755H9.25001Z" fill="#8B8C9E"/>
</g>
</svg>
