<svg width="64" height="64" viewBox="0 0 64 64" fill="none" xmlns="http://www.w3.org/2000/svg">
<g id="document_add_regular">
<path id="Vector" d="M49.3334 53.3334C49.3334 53.687 49.1929 54.0261 48.9428 54.2762C48.6928 54.5262 48.3536 54.6667 48 54.6667H32.7147C31.9512 56.1297 30.9833 57.4766 29.84 58.6667H48C49.4145 58.6667 50.7711 58.1048 51.7713 57.1046C52.7714 56.1044 53.3334 54.7479 53.3334 53.3334V26.208C53.333 24.7937 52.7709 23.4373 51.7707 22.4374L36.2267 6.89604C36.1855 6.85771 36.1418 6.82208 36.096 6.78937C36.063 6.76391 36.031 6.73722 36 6.70937C35.8165 6.53623 35.6214 6.37585 35.416 6.22937C35.3477 6.18533 35.2765 6.14612 35.2027 6.11204L35.0747 6.04804L34.9414 5.97071C34.7974 5.88804 34.6507 5.80271 34.4987 5.73871C33.9676 5.52661 33.4056 5.40232 32.8347 5.37071C32.7814 5.36804 32.728 5.36004 32.6774 5.35204C32.605 5.34086 32.5319 5.33463 32.4587 5.33337H16C14.5855 5.33337 13.229 5.89528 12.2288 6.89547C11.2286 7.89566 10.6667 9.25222 10.6667 10.6667V30.6614C11.9497 30.126 13.2928 29.7482 14.6667 29.536V10.6667C14.6667 10.3131 14.8072 9.97395 15.0572 9.7239C15.3073 9.47385 15.6464 9.33337 16 9.33337H32V21.3334C32 22.7479 32.5619 24.1044 33.5621 25.1046C34.5623 26.1048 35.9189 26.6667 37.3334 26.6667H49.3334V53.3334ZM36 12.3227L46.3414 22.6667H37.3334C36.9797 22.6667 36.6406 22.5262 36.3905 22.2762C36.1405 22.0261 36 21.687 36 21.3334V12.3227Z" fill="#A9A9B8"/>
<path id="Vector_2" d="M32 46.6667C32 44.7406 31.6207 42.8334 30.8836 41.054C30.1465 39.2745 29.0662 37.6577 27.7043 36.2958C26.3423 34.9338 24.7255 33.8535 22.946 33.1164C21.1666 32.3794 19.2594 32 17.3334 32C15.4073 32 13.5001 32.3794 11.7207 33.1164C9.94122 33.8535 8.32438 34.9338 6.96245 36.2958C5.60053 37.6577 4.52019 39.2745 3.78312 41.054C3.04605 42.8334 2.66669 44.7406 2.66669 46.6667C2.66669 50.5565 4.21192 54.287 6.96245 57.0376C9.71299 59.7881 13.4435 61.3333 17.3334 61.3333C21.2232 61.3333 24.9537 59.7881 27.7043 57.0376C30.4548 54.287 32 50.5565 32 46.6667ZM18.6667 48L18.6694 54.6747C18.6694 55.0283 18.5289 55.3674 18.2788 55.6175C18.0288 55.8675 17.6896 56.008 17.336 56.008C16.9824 56.008 16.6433 55.8675 16.3932 55.6175C16.1432 55.3674 16.0027 55.0283 16.0027 54.6747V48H9.32269C8.96907 48 8.62993 47.8595 8.37988 47.6095C8.12983 47.3594 7.98935 47.0203 7.98935 46.6667C7.98935 46.313 8.12983 45.9739 8.37988 45.7239C8.62993 45.4738 8.96907 45.3333 9.32269 45.3333H16V38.6667C16 38.313 16.1405 37.9739 16.3905 37.7239C16.6406 37.4738 16.9797 37.3333 17.3334 37.3333C17.687 37.3333 18.0261 37.4738 18.2762 37.7239C18.5262 37.9739 18.6667 38.313 18.6667 38.6667V45.3333H25.3254C25.679 45.3333 26.0181 45.4738 26.2682 45.7239C26.5182 45.9739 26.6587 46.313 26.6587 46.6667C26.6587 47.0203 26.5182 47.3594 26.2682 47.6095C26.0181 47.8595 25.679 48 25.3254 48H18.6667Z" fill="#A9A9B8"/>
</g>
</svg>
