<svg width="22" height="22" viewBox="0 0 22 22" fill="none" xmlns="http://www.w3.org/2000/svg">
<g id="document_regular">
<path id="Vector" d="M16.9583 18.3333C16.9583 18.4549 16.91 18.5714 16.8241 18.6574C16.7381 18.7434 16.6215 18.7916 16.5 18.7916H5.49996C5.3784 18.7916 5.26182 18.7434 5.17587 18.6574C5.08991 18.5714 5.04163 18.4549 5.04163 18.3333V3.66665C5.04163 3.54509 5.08991 3.42851 5.17587 3.34256C5.26182 3.2566 5.3784 3.20831 5.49996 3.20831H11V7.33331C11 7.81954 11.1931 8.28586 11.5369 8.62967C11.8807 8.97349 12.3471 9.16665 12.8333 9.16665H16.9583V18.3333ZM12.375 4.2359L15.9298 7.79165H12.8333C12.7117 7.79165 12.5952 7.74336 12.5092 7.6574C12.4232 7.57145 12.375 7.45487 12.375 7.33331V4.2359ZM17.7961 7.71281L12.4529 2.37048C12.429 2.34665 12.3997 2.32831 12.375 2.30631C12.3119 2.24679 12.2448 2.19167 12.1742 2.14131C12.1375 2.11656 12.0954 2.10006 12.0569 2.07898C11.9918 2.04231 11.9276 2.00198 11.8589 1.97265C11.6763 1.89974 11.4831 1.85701 11.2869 1.84615C11.2438 1.8434 11.2016 1.83331 11.1576 1.83331H5.49996C5.01373 1.83331 4.54741 2.02647 4.2036 2.37028C3.85978 2.7141 3.66663 3.18042 3.66663 3.66665V18.3333C3.66663 18.8195 3.85978 19.2859 4.2036 19.6297C4.54741 19.9735 5.01373 20.1666 5.49996 20.1666H16.5C16.9862 20.1666 17.4525 19.9735 17.7963 19.6297C18.1401 19.2859 18.3333 18.8195 18.3333 18.3333V9.00898C18.3332 8.52279 18.14 8.05655 17.7961 7.71281Z" fill="#8B8C9E"/>
</g>
</svg>
